<?xml version="1.0" encoding="UTF-8"?>
<svg id="_レイヤー_1" data-name="レイヤー_1" xmlns="http://www.w3.org/2000/svg" version="1.1" viewBox="0 0 397.7319 171.65271">
  <!-- Generator: Adobe Illustrator 30.8.1, SVG Export Plug-In . SVG Version: 2.1.4 Build 1)  -->
  <defs>
    <style>
      .st0 {
        fill: #bcd4bc;
      }

      .st1 {
        fill: #191919;
      }
    </style>
  </defs>
  <path class="st0" d="M-48.82049,35.92103l.00012.00018c.02814-.04138.03845-.05658-.00012-.00018Z"/>
  <g id="X07PHq.tif">
    <g>
      <path class="st1" d="M170.40851,104.89193c.51345-7.17255,2.86893-13.93721,5.94793-20.23558l6.35081-12.99114,3.47546-5.29623-6.15344-.36606c-1.26196-.07507-3.21044-1.71934-4.46993-2.92199-11.70115,14.96475-23.91223,28.83259-37.25912,41.9571-6.30853,6.20342-14.31735,9.63936-20.16376,3.14128-1.85632-2.06324-2.70403-4.8251-3.42998-7.91191-7.9165,7.19243-18.79114,13.41938-27.10024,6.8611-13.48504-10.64358,2.57555-44.39892,29.97629-54.05326,7.11023-2.50521,18.67085-4.76083,21.6263.12065,1.02713,1.6965,1.20792,3.9482.4399,5.79381-4.77824,11.48249-10.61741,21.90952-17.22525,32.50865-1.03446,4.68539-1.20474,10.76974,1.96069,12.68654,2.92023,1.76832,9.50293-4.44464,13.35688-8.50528,9.47111-9.97907,18.6505-19.86882,27.2124-30.67425l13.70705-17.29878c1.25139-1.5793,3.84919-3.0128,5.42057-.85017.38279,1.54061-.71673,4.36814-1.24137,6.04431l-1.90981,6.10163,6.17849.19893c3.52103.11337,6.32261,2.77146,6.09701,6.49841-.21842,3.60825-2.77304,6.23856-4.32005,9.38734l-5.28876,10.76473c-2.82473,5.74944-5.12451,11.47946-6.04918,18.05005,5.60231-1.78452,9.5522-5.18118,13.62648-8.88105l12.37938-13.56133,10.65432-11.46044c3.65379-3.93024,5.89036-8.68614,8.33731-13.9782l-11.29437-1.19605c-3.08894-.32711-8.3165-1.76859-8.50847-5.71635-.12824-2.63703,4.4271-3.66568,6.39385-3.24453l8.19362,1.75455,8.58988-.09512,10.16911-23.48547c.68242-1.57603,3.8859-1.50357,5.1106-.65072,1.28223.89291,1.41303,2.87594.64082,4.66335l-8.36486,19.36194,13.44623,2.0901c2.93887.45682,5.27837,4.36535,3.33842,7.06266-1.19333,1.49587-4.8094,1.37807-6.69138.84149-4.56873-1.30262-8.88355-1.78376-13.48751-1.42273-2.49166,6.18714-5.25089,11.71871-8.97816,17.06246l-2.89653,18.63185c-.43224,2.78039-.59062,5.97773.89988,8.34552,3.35651,5.3321,13.09575,1.45511,18.27766-5.15605l7.83018-9.98987c-.78505-5.78234,1.04735-11.06691,4.83532-15.62755,7.72563-9.30151,19.36909-14.98141,31.51413-16.01716,2.71648-.23167,5.66254,1.11646,7.09634,2.8612,1.53876,1.87247,1.91035,4.76665,1.35685,7.39069-3.24152,15.3677-22.75012,24.59015-38.13023,25.36095.12023,3.18869.13499,7.05224,2.03003,9.56937,10.62747,6.47721,19.14718.12675,28.02302-7.0523,9.35556-7.56706,20.83358-15.9717,32.76148-16.5424,3.72535-.17824,6.43577,1.14032,8.75052,3.77818,1.55536,1.77246,2.43532,4.89287.45121,6.71531-.79114.72667-3.55437.13672-4.22554-.78349-1.78669-2.44966-4.73154-3.2139-7.7736-2.41031-6.61213,1.74666-12.61269,4.79942-18.0932,8.9932l-15.27282,11.68703c-7.30909,5.59305-16.44543,6.84067-24.96941,3.64634-4.38037-1.64153-7.04477-5.06037-8.00385-10.23848-6.87831,8.7518-16.91012,16.8041-27.43185,11.98724-9.44909-4.3258-7.39287-15.60759-5.56656-25.71068l-7.12042,7.52814c-7.40083,7.8246-16.42088,19.46605-28.16383,21.01842-3.49303.46176-7.16563-2.05089-6.87294-6.13956ZM105.79653,98.3138c6.61555-4.82961,11.42671-10.81559,15.03844-17.86567l11.86554-23.1615c-20.48563.71018-40.01856,17.97875-42.90866,37.51182-.58194,3.93312,1.781,8.01838,5.72519,7.89256,3.76323-.12005,7.15665-2.10531,10.27949-4.37721ZM283.45642,60.23687c-11.65769.04065-29.28073,8.90931-31.46065,21.33802,11.73841-.12045,30.13537-8.48657,31.46065-21.33802Z"/>
      <path class="st1" d="M188.67695,147.41881c-.00547.46768-.99955,1.64407-1.1983,1.66109l-12.12988-17.0361c-.34794,4.97868-.28726,9.87358.21227,14.76502l3.14876,1.60351-8.04782.05567,2.94393-1.66668.26233-16.00593-3.25197-1.75419,5.59833-.30608,11.01878,15.67781-.01-13.78115-3.23365-1.7219,7.98201.06883-3.09883,1.67358-.19596,16.76652Z"/>
      <path class="st1" d="M322.23575,148.18286l2.97598-1.86769.18532-13.74058c.00958-.7106-.20611-2.03712-.69979-2.28885l-2.76519-1.40998,5.65686-.31621,11.17695,15.57089-.21556-13.57696-3.27693-1.98103,7.98049.17701-2.96385,1.65664-.1549,17.13848c.02303.13011-.63168,1.39156-.87917,1.21047-.33003-.24148-.82369-.74705-1.18585-1.25185l-11.31809-15.77601.25869,14.53227,3.20319,1.85069-7.97814.07271Z"/>
      <path class="st1" d="M132.21111,128.85338l7.84673.1609-3.16307,1.59719-.26258,11.51037c-.03623,1.58814-.60022,3.90291-1.79601,4.92023-3.47836,2.95923-8.6505,2.78684-11.8574-.5062-1.4015-1.43914-1.39723-4.13404-1.39791-6.12631l-.00348-10.20775-2.10179-.27755c-.29198-.03856-.34574-.26074-.66049-1.18183l8.44494.21108c-1.16492.90335-1.47128.92538-2.96196,1.37862l-.19004,11.68282c-.05498,3.37979,2.45712,5.24749,5.68628,5.21719,2.80272-.02629,5.42761-1.53102,5.42992-4.74227l.00821-11.39355-3.02136-2.24295Z"/>
      <path class="st1" d="M69.34305,140.8561l-1.91572,5.80064,3.22561,1.77451-7.62509.18262,3.2196-3.28709,6.05723-16.11688,1.85383-.9169,5.75902,16.66411c.58175,1.68332,1.64127,2.0772,3.90799,3.57323l-9.00056-.21218,3.09463-1.51319-1.94335-5.94262-6.6332-.00627ZM75.51939,139.42495l-2.82273-7.22272-2.86031,7.19779,5.68304.02493Z"/>
      <path class="st1" d="M261.49184,140.78885l-1.67727,5.80083,2.84763,1.71553-7.47886.12528c2.0571-1.73875,3.01665-2.53937,3.6587-4.31847l5.33885-14.67797,1.8034-1.19605,6.60995,18.25176,3.07199,1.83489-8.44693.02328c.52391-.83301.91092-.951,2.58765-1.65283l-1.8318-5.90853-6.48329.00227ZM267.50529,139.36889l-2.82157-7.13509-2.74923,7.16981,5.5708-.03472Z"/>
      <path class="st1" d="M198.17775,140.89977c-.78952,1.64531-1.61367,4.31919-1.89936,5.75307l3.08438,1.72311-7.58733.13555c1.87625-1.73581,2.64834-2.42927,3.50059-3.95426l5.59089-15.27007,1.57325-.95165c.31545-.19082.60328,1.16476.73147,1.52824l5.34637,15.15974c.58729,1.66528,1.75658,2.10476,3.76553,3.22882-3.16259.37728-5.45066.36086-8.7497-.04942l2.96875-1.41741-1.93348-5.85332-6.39134-.03239ZM203.99273,139.41657l-2.65281-7.12723-2.37284,7.13957,5.02565-.01234Z"/>
      <path class="st1" d="M103.23277,133.77155c-.92896,2.17859-1.23467,4.92555-.73662,7.23286.72595,3.36312,3.24646,5.59478,6.01096,6.06676,3.73967.63847,5.98267-1.17138,8.70647-4.19336-.60555,5.06042-5.67443,6.78594-10.01681,6.04348-4.09114-.6995-7.21248-4.08502-7.78863-8.59811-.43446-3.40326.40194-6.68669,2.70236-9.07055,2.26791-2.35018,5.69389-3.4316,9.22435-2.79337l4.62983.83698.20855,5.41223c-2.11912-3.22718-3.23433-4.87417-6.05912-5.07447-3.06664-.21745-5.61474,1.1671-6.88135,4.13755Z"/>
      <path class="st1" d="M146.95801,131.64598c-2.98286,3.99146-3.33521,10.11794.45015,13.6605,3.80562,3.56152,8.93413,1.82124,12.13047-2.51354-.57551,5.18632-5.93576,6.87437-10.22143,6.00276-4.42461-.89986-7.33984-4.73548-7.50747-9.53145-.11567-3.3095.82652-6.25555,3.06169-8.39372,2.14203-2.04907,5.33083-2.88617,8.50234-2.41941l4.86243.71562.2327,5.20943c-1.75852-2.13319-2.99475-3.65137-4.25929-4.54711-3.19955-.4561-5.25129-.13418-7.25159,1.81692Z"/>
      <path class="st1" d="M355.98493,140.6194l-6.51259-.05571-1.80949,5.78394,3.30991,1.73954-7.77576.0629,2.81171-2.05436,5.59468-15.33603c.4686-1.28452,1.06281-2.28565,2.30536-2.65003l6.71523,18.25437,3.06324,1.75206-8.61418-.0797,2.77198-1.72839-1.8601-5.6886ZM355.45121,139.24472l-2.84177-7.41981-2.63591,7.48662,5.47768-.06681Z"/>
      <path class="st1" d="M308.16369,140.64426l-1.83078,5.72481,3.31341,1.78701-7.94956.06105,2.75691-1.7975,5.96869-15.91851c.42241-1.12658,1.28614-2.27989,2.28242-2.06932l6.66924,18.13199,2.94192,1.49556-8.64506.07453,2.93956-1.7347-2.03001-5.67252-6.41674-.08241ZM314.07584,139.31063l-2.75292-7.60271-2.73032,7.62301,5.48324-.02031Z"/>
      <path class="st1" d="M62.74528,143.05322l-1.37514,5.51912-15.23868-.10279c1.15835-.92574,1.66684-1.0967,3.05246-1.69999l.01801-16.60595-2.06089-.30668c-.37068-.05516-.52605-.74995-.40811-1.1615l7.95736.08907c-.41693,1.02184-1.23927,1.21406-2.79243,1.39846l-.1307,16.3705c2.38493.95654,5.79802,1.44151,7.65583-.33083l3.32228-3.16942Z"/>
      <path class="st1" d="M248.60761,147.447l1.50726.32561c.17502.03781-.72727.70836-.90609.70313l-7.66884-.22397,2.93195-1.79635-.0626-15.68094c-1.12455-.92122-3.20642-1.08489-4.51877-.4395-.95689.47058-1.72953,1.78159-3.15891,3.59872l.23919-5.13062,17.40139-.01908.18811,5.1145c-1.33722-1.64788-2.17765-2.96797-3.09705-3.50359-1.16896-.68101-3.36503-.49069-4.55811.06244l-.09852,14.98848c-.00435.66209,1.17252,1.86542,1.80098,2.00118Z"/>
      <path class="st1" d="M291.58691,142.84804c.00306,2.06101-.45491,3.58998-1.14536,5.48918l-14.65144-.14589,2.97062-1.63638-.11543-16.0799-3.07722-1.57413,8.39609-.21181c-.40083,1.1435-.91549,1.27801-2.72818,1.32843l-.02298,15.7281c2.49122,2.58777,7.80232,1.80471,10.37391-2.8976Z"/>
      <path class="st1" d="M301.70871,148.12776l-8.51894.20866c1.38261-1.0134,1.68251-1.14426,3.0471-1.91729l-.11399-15.83609-3.07931-1.75423,8.49254.01382-2.87089,1.63927.081,15.87974,2.96249,1.76611Z"/>
      <path class="st1" d="M169.6625,148.37697l-8.4344.09146c.47033-.91674,1.04995-1.10067,2.70432-1.36696l.07355-16.46438-3.16081-1.61892,8.32667.05121-1.81145,1.11897c-.37865.2339-.93471,1.15767-.93705,1.71351l-.05387,12.78729c-.00316.75022.21744,1.97398.7108,2.2489l2.58224,1.43893Z"/>
      <path class="st1" d="M235.01066,148.31355l-8.11968.07745c.4657-.76607,1.01179-1.01242,2.67307-1.44509l.02959-16.55325c-1.47051-.53543-1.71414-.57403-3.16621-1.50294l8.64421-.04888c-1.46934.97318-1.71924,1.05232-3.06228,1.73l.03347,15.75084,2.96782,1.99187Z"/>
      <path class="st1" d="M330.38504,94.9889c-1.33339,1.7297-3.68161,1.28822-4.92892.01498-1.26848-1.29485-1.95703-3.41393-.79848-5.06423,1.25734-1.79102,3.70796-1.78233,5.07076-.83954,1.92059,1.32868,2.35277,3.68856.65665,5.88879Z"/>
    </g>
  </g>
  <g>
    <path class="st0" d="M371.78781,70.27317c-2.65598-.95908-5.09744-2.07297-7.60464-3.21427,2.23994,2.29163,4.4509,3.21285,7.60464,3.21427Z"/>
    <path class="st0" d="M364.86794,66.72119c2.03666,1.04046,4.01526,1.93317,6.23599,2.73871-1.87896-1.39223-3.86583-2.47753-6.23599-2.73871Z"/>
    <path class="st0" d="M353.50025,58.57055c-1.34737-1.59354-2.19855-3.61737-2.47024-5.64582.83745,1.97134,1.52949,3.87913,2.47024,5.64582ZM353.42332,57.35083l-1.84976-4.64688c1.43791,1.09732,2.01772,2.84783,1.84976,4.64688ZM360.12408,58.99984l3.23736.34953c-1.03953.32359-2.24446.24274-3.23736-.34953ZM363.26463,58.77895l-3.5368-.36237c1.31534-.47166,2.47338-.09223,3.5368.36237ZM356.77404,63.2062l1.19832-2.78131c-.11562,2.70874-.56079,5.24756-1.0485,7.91544-.23405,1.28034.13694,2.50707.30424,3.92478-.96017-2.76984-1.50197-6.14131-.45405-9.05891ZM358.99505,63.93441l-1.44536,6.65282c-.18799-.8075-.22163-1.71774-.03232-2.61774.58235-2.7686.86932-5.45842,1.08055-8.30897.65413,1.35718.70398,2.86152.39713,4.27389ZM371.10394,69.4599c-2.22073-.80554-4.19933-1.69825-6.23599-2.73871,2.37017.26118,4.35703,1.34648,6.23599,2.73871ZM371.78781,70.27317c-3.15374-.00142-5.3647-.92264-7.60464-3.21427,2.5072,1.14131,4.94866,2.25519,7.60464,3.21427ZM365.28741,77.85902l-1.27162,2.87198c-.11856-1.18118.3952-2.07712,1.27162-2.87198ZM364.32714,81.29757c.44891-1.27332.99363-2.34545,1.61029-3.48709-.09562,1.37546-.64238,2.53028-1.61029,3.48709ZM365.6279,99.28148l-1.49666,3.90169c.81153-4.33988,1.50616-8.4327,2.02825-12.76079.48084,2.98837.59311,5.9271-.53159,8.8591ZM364.18693,99.93152l-.65465,3.92382c-.53794-2.82597-.19098-5.57309.4943-8.29115.51965-2.04725.96575-3.98409,1.65954-6.03389-.358,3.53278-.85167,6.92665-1.49919,10.40122ZM371.72847,87.68361l-3.56992-6.31247c-.66628-1.17815-1.13932-2.36083-1.25537-3.66879,1.38729,2.22637,2.48634,4.31789,3.62505,6.53485l3.50025,5.80418-2.3-2.35777ZM370.33232,82.66984l-2.51792-4.58666c2.33382,1.9797,3.4782,4.56091,4.77974,7.30267l2.21764,4.67157c-1.77593-2.30697-3.07898-4.83648-4.47945-7.38758Z"/>
    <g>
      <path class="st0" d="M353.50025,58.57055c-.94075-1.76669-1.63279-3.67448-2.47024-5.64582.2717,2.02845,1.12287,4.05229,2.47024,5.64582Z"/>
      <path class="st0" d="M357.97236,60.42489l-1.19832,2.78131c-1.04792,2.9176-.50612,6.28907.45405,9.05891-.1673-1.41771-.53829-2.64444-.30424-3.92478.48771-2.66788.93288-5.20671,1.0485-7.91544Z"/>
      <path class="st0" d="M364.0158,80.731l1.27162-2.87198c-.87641.79486-1.39017,1.6908-1.27162,2.87198Z"/>
      <path class="st0" d="M364.32714,81.29757c.96791-.95681,1.51467-2.11162,1.61029-3.48709-.61666,1.14164-1.16138,2.21377-1.61029,3.48709Z"/>
      <path class="st0" d="M365.6279,99.28148c1.1247-2.932,1.01243-5.87073.53159-8.8591-.52209,4.32809-1.21672,8.42091-2.02825,12.76079l1.49666-3.90169Z"/>
      <path class="st0" d="M367.8144,78.08318l2.51792,4.58666c1.40047,2.5511,2.70352,5.08061,4.47945,7.38758l-2.21764-4.67157c-1.30154-2.74176-2.44592-5.32297-4.77974-7.30267Z"/>
      <path class="st0" d="M363.53228,103.85534l.65465-3.92382c.64752-3.47457,1.1412-6.86843,1.49919-10.40122-.6938,2.04979-1.1399,3.98663-1.65954,6.03389-.68528,2.71805-1.03224,5.46518-.4943,8.29115Z"/>
      <path class="st0" d="M366.90318,77.70236c.11606,1.30796.58909,2.49064,1.25537,3.66879l3.56992,6.31247,2.3,2.35777-3.50025-5.80418c-1.13871-2.21696-2.23775-4.30848-3.62505-6.53485Z"/>
      <path class="st0" d="M353.42332,57.35083c.16796-1.79906-.41185-3.54956-1.84976-4.64688l1.84976,4.64688Z"/>
      <path class="st0" d="M358.59792,59.66052c-.21123,2.85056-.4982,5.54037-1.08055,8.30897-.18932.9-.15567,1.81024.03232,2.61774l1.44536-6.65282c.30685-1.41237.257-2.91671-.39713-4.27389Z"/>
      <path class="st0" d="M363.36144,59.34937l-3.23736-.34953c.9929.59226,2.19783.67311,3.23736.34953Z"/>
      <path class="st0" d="M359.72782,58.41658l3.5368.36237c-1.06342-.45461-2.22147-.83403-3.5368-.36237Z"/>
      <path class="st0" d="M358.50824,74.75762c.00002.00012.00003.00017.00005.00029.06909.00333.05093.00234-.00005-.00029Z"/>
      <path class="st1" d="M336.48756,52.97187c-7.11906-1.56666-14.33474-.53766-20.64757,2.91174l-.42524-.01417c-.10313-.00344.06416-.31712.15582-.41405,6.32287-3.473,13.71364-4.55937,20.76105-2.97228,5.28203,1.38122,10.29983,3.58916,13.99249,7.58661-4.30758-3.36621-8.45401-6.13085-13.83655-7.09786Z"/>
      <path class="st1" d="M358.21219,74.65513c-2.06814-1.92211-3.046-7.66446-2.28698-10.08934.64836-2.07136,1.46114-4.0031,2.2049-6.01488-1.49356-1.93004-3.11591-3.54216-5.00317-4.9769.64197,1.25229.88211,2.27079.82168,3.54966l1.41761,3.4567c-2.23565-1.09785-3.31755-2.90694-4.17157-4.9711-.52889-1.27832-.89182-2.51037-.53794-3.93109-4.17294-3.3376-10.6947-5.52144-15.96923-6.16664-10.83508-1.32539-21.57703,2.08494-29.5998,9.51163l-3.37898,3.23265c.77921-1.34259,1.82598-2.31768,2.94798-3.40401,8.07583-7.81904,19.59336-11.37154,30.6914-9.68446,8.8514,1.34555,17.50293,6.07016,23.16141,13.06144,2.76302-1.30835,4.75277.25889,7.66969.57949-2.13322,1.25388-4.52716,1.68634-6.7502.51232,1.61142,2.28964,2.9597,4.38231,4.07073,6.77222,4.86052-.1086,6.78937,3.41855,11.14892,3.76709-3.31044,1.98782-7.41279.45729-10.29717-1.8339,1.04957,2.77657,1.7688,5.40104,2.22285,8.22586,1.09625,1.07144,2.36639,1.95001,3.25385,3.20944.86067,1.2214,1.76953,2.49983,2.39505,3.84391l2.17789,4.67975c.6436,1.38295,1.32112,2.53799,2.52232,3.83232-2.66054-.14469-5.40932-3.3243-6.73117-5.72263l-3.25337-5.9028c.07792,2.64418-.08161,5.22491-.54537,7.87872.29777,2.13569.57006,4.23406.64198,6.3746.12962,2.14209-.68136,3.90349-1.31236,5.80211l-1.95649,5.8869c-1.85422-4.0741-.85104-9.10984.50177-13.15938.33053-1.8044.725-3.49859,1.65794-5.06117.49496-3.0155.6557-5.91595.44016-9.00471l-.69028,1.39315-1.98175,3.45821c-.78857-2.81454-.07002-5.70905,2.39802-7.33116-.8953-5.85203-3.066-11.26703-6.57427-16.09914.10643,1.30507.22524,2.52114-.03085,3.76591l-1.41154,6.86117c-.21457,1.04298.5022,2.63134.39308,3.52996-.00228.0188.01102.08782.03934.27088.17399.0084-.20187-.01054-.27565-.01437-.02077-.00108-.0123-.02753-.02045-.08842ZM353.42332,57.35084c.16797-1.79906-.41185-3.54957-1.84975-4.64689l1.84975,4.64689ZM363.26462,58.77896c-1.06342-.45461-2.22147-.83403-3.5368-.36238l3.5368.36238ZM353.50024,58.57056c-.94075-1.7667-1.63279-3.67448-2.47024-5.64583.2717,2.02845,1.12288,4.05229,2.47024,5.64583ZM363.36144,59.34937l-3.23736-.34953c.9929.59226,2.19783.67311,3.23736.34953ZM357.54969,70.58723l1.44536-6.65282c.30684-1.41236.257-2.9167-.39713-4.27388-.21123,2.85055-.4982,5.54037-1.08055,8.30896-.18931.9-.15567,1.81025.03232,2.61774ZM357.22809,72.26512c-.1673-1.41772-.53828-2.64445-.30423-3.92478.4877-2.66788.93287-5.20671,1.0485-7.91545l-1.19832,2.78132c-1.04792,2.91759-.50612,6.28907.45405,9.05892ZM371.10393,69.4599c-1.87896-1.39222-3.86583-2.47753-6.236-2.73871,2.03667,1.04046,4.01526,1.93316,6.236,2.73871ZM371.7878,70.27318c-2.65598-.95908-5.09744-2.07297-7.60464-3.21427,2.23995,2.29163,4.45091,3.21285,7.60464,3.21427ZM372.59413,85.38585c-1.30153-2.74175-2.44591-5.32297-4.77974-7.30266l2.51793,4.58666c1.40047,2.5511,2.70351,5.08061,4.47945,7.38758l-2.21764-4.67158ZM374.02847,90.04139l-3.50025-5.80418c-1.13871-2.21696-2.23775-4.30847-3.62504-6.53484.11605,1.30796.58908,2.49064,1.25537,3.66879l3.56992,6.31247,2.3,2.35777ZM364.32714,81.29757c.9679-.9568,1.51467-2.11162,1.61028-3.48709-.61666,1.14164-1.16138,2.21377-1.61028,3.48709ZM364.01579,80.731l1.27161-2.87198c-.87641.79486-1.39017,1.6908-1.27161,2.87198ZM363.53228,103.85534l.65465-3.92381c.64752-3.47456,1.14119-6.86844,1.49919-10.40121-.6938,2.04979-1.13989,3.98663-1.65954,6.03388-.68528,2.71806-1.03225,5.46518-.4943,8.29115ZM365.6279,99.28149c1.1247-2.93201,1.01244-5.87073.53159-8.8591-.52208,4.32809-1.21672,8.42091-2.02825,12.76079l1.49666-3.90168Z"/>
      <path class="st1" d="M313.5082,57.28904c-3.92428,2.6294-6.70901,5.85954-9.31348,9.74185,1.91602-4.06604,5.12838-7.3065,8.7271-9.96877.12908-.09549.7099.14416.58638.22692Z"/>
    </g>
  </g>
  <g>
    <path class="st0" d="M32.30993,89.16389l-1.17755,2.85943c.69995-.82418,1.17142-1.81735,1.17755-2.85943Z"/>
    <path class="st0" d="M30.41072,92.19151c.57333-1.02205.99779-1.93454,1.33343-3.00314-.73834.90467-1.27226,1.85706-1.33343,3.00314Z"/>
    <g>
      <path class="st0" d="M37.91354,98.51923l-1.45179,5.99171c-.33923,1.40005-.42817,2.87983.21966,4.23523.20318-2.64512.57995-5.08097,1.1472-7.59363.19547-.86589.2544-1.73628.08493-2.63331Z"/>
      <path class="st0" d="M32.74263,108.82079l2.50302.48053c-.75359-.5785-1.62169-.63314-2.50302-.48053Z"/>
      <path class="st0" d="M35.57572,109.77557l-3.30225-.48775c.67526.57597,2.8324.91885,3.30225.48775Z"/>
      <path class="st0" d="M24.67696,98.83397c1.84483.59937,3.58834,1.16668,5.20457,2.19499l1.88783.83772c-1.89637-2.15106-4.25036-3.02634-7.0924-3.03271Z"/>
      <path class="st0" d="M38.37735,100.9405c-.55213,2.34643-.93111,4.63047-1.14903,7.02826,2.1147-3.64912,2.11074-6.29719,1.10759-10.21834.11271,1.14579.22305,2.1211.04144,3.19009Z"/>
      <path class="st0" d="M41.618,110.28663l1.71261,4.58772c-.15481-1.78564-.87318-3.20507-1.71261-4.58772Z"/>
      <path class="st0" d="M42.81821,115.07076l-1.62836-4.38857c.0391,1.93232.32263,3.44922,1.62836,4.38857Z"/>
      <path class="st0" d="M22.7063,80.93107l1.89814,4.3055c1.04421,2.36855,2.1262,4.8519,4.08481,6.56249l-2.98105-5.85545c-.96606-1.74894-1.82244-3.46992-3.00191-5.01254Z"/>
      <path class="st0" d="M33.16803,68.60929c-.22607,1.54703-.60962,2.99703-.88622,4.5821l-1.43346,8.21431.18428.06792,1.58643-5.65017c.66617-2.37261.93848-4.79774.54897-7.21415Z"/>
      <path class="st0" d="M30.81235,73.85184c-.85208,2.21807-.57854,4.599-.32246,6.86813.57457-3.92484,1.30675-7.5407,2.09001-11.46931l-1.76755,4.60117Z"/>
      <path class="st0" d="M25.54416,83.30317l-2.26781-2.49648c2.48784,3.63532,3.97679,7.57712,6.29755,11.43261-.33837-2.88146-2.65415-6.04044-4.02974-8.93613Z"/>
      <path class="st0" d="M25.7355,99.6839c1.58803,1.31942,3.33941,2.18206,5.42372,2.51849l-2.00464-1.11435c-1.05797-.58812-2.1999-.97675-3.41908-1.40414Z"/>
      <path class="st1" d="M77.26354,112.15955c-8.82309,6.4969-23.06189,5.44995-31.06366-1.86164,2.95583,2.10634,5.84832,3.71781,9.22468,4.67815,7.59047,2.15896,14.77995.90006,21.83898-2.81651Z"/>
      <path class="st1" d="M32.90619,66.72157c.01464-.00747.23684-.12088.18762-.09585l.05295.20097c.17773.67455.51351,1.62742.58819,2.4245.26886,2.86968-.25318,5.60118-1.16184,8.30789-.5274,1.81817-.79127,3.65587-1.84864,5.31446-.62514,2.68529-.79654,5.44988-.6552,8.30289l1.2627-2.23925c.41487-.73572.8194-1.39959,1.23494-2.25346.66956,2.60607.00221,5.24574-2.30548,6.70488.6587,5.36943,2.57408,10.31185,5.60377,14.73401-.09498-1.15652-.18069-2.20413.06575-3.29221l1.43651-6.34254c.26304-1.16138-.427-2.36259-.30118-3.64877,2.04814,1.80706,2.82889,7.0735,2.18306,9.18239-.5998,1.95856-1.42475,3.77646-2.19827,5.70852,1.34126,1.66637,2.66134,3.32812,4.43317,4.60679-.55849-1.13386-.76515-2.12969-.68872-3.3035l-1.24967-3.18089c1.94535,1.18284,3.15019,2.78,3.71747,4.82897.61494,1.07532.64555,2.22417.39588,3.42751,1.54546,1.21227,3.08525,2.25734,4.803,2.97474,12.28483,5.86234,26.78904,3.80656,36.8498-5.36267l2.56569-2.33833c-.65114,1.12102-1.53109,1.88635-2.45072,2.73926-8.16498,7.57257-19.65801,10.37395-30.47045,7.68953-5.23181-1.29891-12.25226-5.04787-15.86454-9.10975l-2.38236-2.67887c-2.52445,1.05625-4.26355-.33264-6.94833-.70008,1.98446-1.10012,4.17908-1.44013,6.16259-.30645-1.40292-2.04778-2.56422-4.01732-3.54954-6.20931-1.51925-.12382-3.03728-.40748-4.34943-1.18037l-3.2954-1.94107c-.65548-.38609-1.51317-.12483-2.20118-.68159,3.49673-1.54813,6.36644.01189,9.12383,1.97005-.95664-2.4976-1.46911-4.88278-1.83637-7.4163-.97539-.99196-2.11675-1.86291-2.91054-3.05025-.72958-1.09128-1.50054-2.24034-2.02228-3.42865l-2.01214-4.58287c-1.13526-2.58566-2.60047-3.35474-1.45738-3.25978,2.52642,1.12158,4.36955,3.27736,5.56323,5.74828l2.57853,4.96908c.02099-2.45824.19726-4.78333.6945-7.14622-.25383-1.88959-.41797-3.7064-.47291-5.58716.03793-1.63765.46519-3.076,1.02552-4.61013l2.11229-5.78319-.0084-.10523ZM30.84834,81.40569l.18428.06792,1.58644-5.65017c.66618-2.37262.93848-4.79775.54896-7.21415-.22606,1.54703-.60961,2.99702-.88622,4.58209l-1.43347,8.21431ZM30.48988,80.71997c.57457-3.92484,1.30675-7.5407,2.09001-11.4693l-1.76755,4.60117c-.85208,2.21807-.57854,4.599-.32246,6.86814ZM25.54415,83.30317l-2.26781-2.49648c2.48784,3.63532,3.97679,7.57712,6.29755,11.43261-.33837-2.88146-2.65415-6.04044-4.02974-8.93612ZM28.68925,91.79908l-2.98104-5.85546c-.96607-1.74895-1.82244-3.46991-3.00191-5.01254l1.89814,4.3055c1.04421,2.36855,2.1262,4.85191,4.08481,6.5625ZM31.13238,92.02332c.69995-.82418,1.17142-1.81735,1.17755-2.85943l-1.17755,2.85943ZM30.41072,92.19152c.57334-1.02206.99779-1.93454,1.33343-3.00314-.73834.90467-1.27227,1.85706-1.33343,3.00314ZM37.22832,107.96876c2.1147-3.64913,2.11074-6.29719,1.10759-10.21834.11271,1.14579.22305,2.12109.04143,3.19009-.55212,2.34643-.93111,4.63047-1.14902,7.02826ZM36.68141,108.74617c.20318-2.64512.57994-5.08098,1.14719-7.59363.19548-.86589.2544-1.73628.08494-2.63331l-1.45179,5.99171c-.33923,1.40005-.42818,2.87982.21966,4.23523ZM29.88153,101.02896l1.88783.83772c-1.89637-2.15106-4.25036-3.02634-7.0924-3.03271,1.84483.59937,3.58834,1.16668,5.20457,2.19499ZM31.15922,102.20239l-2.00465-1.11436c-1.05797-.58811-2.1999-.97674-3.41908-1.40413,1.58803,1.31941,3.33941,2.18206,5.42372,2.51849ZM43.3306,114.87435c-.15481-1.78565-.87318-3.20508-1.71261-4.58772l1.71261,4.58772ZM42.8182,115.07076l-1.62836-4.38857c.0391,1.93232.32263,3.44922,1.62836,4.38857ZM35.24566,109.30132c-.75359-.5785-1.62169-.63314-2.50302-.48052l2.50302.48052ZM35.57571,109.77558l-3.30225-.48775c.67526.57597,2.8324.91885,3.30225.48775Z"/>
    </g>
  </g>
</svg>
