<?xml version="1.0" encoding="UTF-8"?>
<svg id="_レイヤー_1" data-name="レイヤー_1" xmlns="http://www.w3.org/2000/svg" version="1.1" viewBox="0 0 398.4 164.8">
  <!-- Generator: Adobe Illustrator 30.6.0, SVG Export Plug-In . SVG Version: 2.1.4 Build 109)  -->
  <defs>
    <style>
      .st0, .st1 {
        fill: none;
      }

      .st2, .st3 {
        fill: #4f4333;
      }

      .st1 {
        stroke: #231815;
      }

      .st1, .st3 {
        stroke-miterlimit: 10;
      }

      .st4 {
        fill: #231815;
      }

      .st5 {
        fill: #f6d7bb;
      }

      .st3 {
        stroke: #4f4333;
        stroke-width: 0px;
      }
    </style>
  </defs>
  <path class="st1" d="M188.7,11.8"/>
  <path class="st4" d="M0,107.4h8.2l18.6,22.8v-17.5c0-1.9-.2-3-.6-3.5-.6-.6-1.4-.9-2.6-.9h-1.1v-.8h10.6v.8h-1.1c-1.3,0-2.2.4-2.7,1.2-.3.5-.5,1.6-.5,3.3v25.6h-.8l-20-24.4v18.7c0,1.9.2,3,.6,3.5.6.6,1.4.9,2.6.9h1.1v.8H1.7v-.8h1.1c1.3,0,2.2-.4,2.8-1.2.3-.5.5-1.6.5-3.3v-21.1c-.9-1-1.5-1.7-2-2-.5-.3-1.1-.6-2-.9-.4-.1-1.1-.2-2-.2v-.8Z"/>
  <path class="st4" d="M121.1,121l11.2,11.1c1.8,1.8,3.4,3.1,4.7,3.7s2.6,1,3.9,1.1v.8h-14.4v-.8c.9,0,1.5-.1,1.9-.4.4-.3.6-.6.6-1s0-.7-.2-1c-.1-.3-.6-.8-1.4-1.6l-10.5-10.4v9.8c0,1.5,0,2.6.3,3,.1.4.5.7.9,1,.6.4,1.3.5,2,.5h1v.8h-12.9v-.8h1.1c1.3,0,2.2-.4,2.7-1.1.4-.5.5-1.6.5-3.4v-19.6c0-1.5,0-2.6-.3-3.1-.1-.4-.5-.7-.9-.9-.7-.4-1.3-.5-2.1-.5h-1.1v-.8h12.9v.8h-1c-.7,0-1.4.2-2,.5-.5.2-.8.6-1,1.1-.2.5-.3,1.5-.3,3v9.3c.3-.3,1.3-1.2,3.1-2.8,4.4-4.1,7.1-6.8,8-8.1.4-.6.6-1.1.6-1.6s-.2-.6-.5-.9-.8-.4-1.6-.4h-.7v-.8h11.1v.8c-.7,0-1.3.1-1.8.3-.5.2-1.2.5-2,1-.8.5-1.7,1.2-2.9,2.3-.3.3-1.8,1.8-4.5,4.6l-4.6,4.6Z"/>
  <path class="st4" d="M181.8,127.6h-11.7l-2.1,4.8c-.5,1.2-.8,2.1-.8,2.6s.2.9.7,1.2c.4.4,1.4.6,2.9.7v.8h-9.6v-.8c1.3-.2,2.1-.5,2.5-.9.8-.7,1.6-2.2,2.5-4.4l10.7-25h.8l10.6,25.2c.9,2,1.6,3.3,2.3,3.9.7.6,1.7.9,2.9,1v.8h-12v-.8c1.2,0,2-.3,2.4-.6.4-.3.6-.8.6-1.3s-.3-1.7-.9-3.1l-1.8-4.4ZM181.1,126l-5.1-12.3-5.3,12.3h10.4Z"/>
  <path class="st4" d="M73.6,127.6h-11.7l-2.1,4.8c-.5,1.2-.8,2.1-.8,2.6s.2.9.7,1.2c.4.4,1.4.6,2.9.7v.8h-9.6v-.8c1.3-.2,2.1-.5,2.5-.9.8-.7,1.6-2.2,2.5-4.4l10.7-25h.8l10.6,25.2c.9,2,1.6,3.3,2.3,3.9.7.6,1.7.9,2.9,1v.8h-12v-.8c1.2,0,2-.3,2.4-.6.4-.3.6-.8.6-1.3s-.3-1.7-.9-3.1l-1.8-4.4ZM73,126l-5.1-12.3-5.3,12.3h10.4Z"/>
  <path class="st4" d="M231.8,107.4h10.6v.8h-.6c-.4,0-1,.2-1.7.5-.7.3-1.4.8-2,1.5-.6.6-1.4,1.7-2.3,3.1l-7.3,11.5v7.6c0,1.9.2,3,.6,3.5.6.6,1.5.9,2.7.9h1v.8h-12.9v-.8h1.1c1.3,0,2.2-.4,2.7-1.2.3-.5.5-1.6.5-3.3v-7.2l-8.3-12.7c-1-1.5-1.7-2.4-2-2.8-.3-.4-1.1-.8-2.2-1.3-.3-.1-.7-.2-1.3-.2v-.8h13v.8h-.7c-.7,0-1.3.2-1.9.5-.6.3-.9.8-.9,1.5s.5,1.5,1.4,2.9l6.3,9.8,6-9.4c.9-1.4,1.3-2.4,1.3-3.1s-.1-.8-.3-1.1c-.2-.3-.5-.6-.9-.8s-1-.3-1.8-.3v-.8Z"/>
  <path class="st4" d="M279.3,127.6h-11.7l-2.1,4.8c-.5,1.2-.8,2.1-.8,2.6s.2.9.7,1.2c.4.4,1.4.6,2.9.7v.8h-9.6v-.8c1.3-.2,2.1-.5,2.5-.9.8-.7,1.6-2.2,2.5-4.4l10.7-25h.8l10.6,25.2c.9,2,1.6,3.3,2.3,3.9.7.6,1.7.9,2.9,1v.8h-12v-.8c1.2,0,2-.3,2.4-.6.4-.3.6-.8.6-1.3s-.3-1.7-.9-3.1l-1.8-4.4ZM278.6,126l-5.1-12.3-5.3,12.3h10.4Z"/>
  <path class="st4" d="M330.5,137.8l-11.7-25.5v20.3c0,1.9.2,3,.6,3.5.6.6,1.4.9,2.6.9h1.1v.8h-10.6v-.8h1.1c1.3,0,2.2-.4,2.7-1.2.3-.5.5-1.6.5-3.3v-19.8c0-1.3-.1-2.3-.4-2.9-.2-.4-.6-.8-1.2-1.1-.6-.3-1.5-.4-2.7-.4v-.8h8.6l11,23.7,10.8-23.7h8.6v.8h-1.1c-1.3,0-2.2.4-2.8,1.2-.3.5-.5,1.6-.5,3.3v19.8c0,1.9.2,3,.6,3.5.6.6,1.4.9,2.6.9h1.1v.8h-12.9v-.8h1.1c1.3,0,2.2-.4,2.7-1.2.3-.5.5-1.6.5-3.3v-20.3l-11.7,25.5h-.7Z"/>
  <path class="st0" d="M387.7,123.9h0c0,0,0,0,0,0,0,0,0,0,.1,0-.9-2.5-3.1-8.5-4.5-12-1.4,2.9-3.9,8.7-5.3,12,0,0,0,0,.1,0h0c0,0,0,0,0,0,1.3,0,3.1,0,4.6,0s3.6,0,5,0Z"/>
  <path d="M378,123.9c1.3-3.3,3.9-9,5.3-12,1.4,3.5,3.6,9.5,4.6,12,0,0,0,0,0,.1l.7,1.8s0,.2.1.3c1.5,4.1,3.1,8.7,3.9,11.7.8,0,1.9,0,2.6,0s2.1,0,3.1,0h.2c-2.3-5-8.9-21.5-12.7-31.7h-2.3c-4.5,10.4-9.4,21-14.5,31.7h.2c.5,0,1.2,0,1.9,0s1.2,0,1.8,0c.8-2.8,2.5-7.5,4.3-11.8"/>
  <path d="M382.7,123.9"/>
  <path d="M388.4,126"/>
  <path d="M382.6,126"/>
  <path d="M378,137.8v-.8h-1.3c-1.5,0-2.6-.3-3.3-.9-.3-.2-.5-.7-.6-1.4v3.1h5.2Z"/>
  <path class="st3" d="M238.8,56.3c0,0-2.1,3.1-3.5,4.9-3.6,4.5-8.4,6.8-8.4,6.8-2.5,1.2-4.6,1.7-5,1.8-.8.2-2.2.4-4.6.3-4.1-.2-7.1-1.2-9.7-2.1-3.8-1.4-5.5-2.2-7.9-3.2-.2,0-2.8-1.4-4.5-1.5-.7,0-1.6-.1-1.6-.1-.8,0-1.9,0-2.5,0-1.2.2-1.2.1-3.3.6,0,0-2.2.4-2.3.4-2.3.4-4.8.7-7.9,1.2-4.3.7-5.8.7-7.1.4-1.4-.3-1.8-.2-2.7-.9-.7-.7-1.1-1.1-1.2-1.3,0,0,0,0,0,0,.7,1.6,1.9,3.8,4,5.8,0,0,0,0,0,0,0,0,.9,0,1.4,0,.9,0,1.3.2,3.5-.1.7-.1,1.5-.2,3.9-.8,3.6-.8,5-1.3,6.8-1.8,4.2-1.3,5-1.4,7-1.4,1.3,0,3.2,0,4.6.5,4,1.3,6.3,2.7,10.2,3.7,2.3.6,7.7,2.7,13.9,1.4,0,0,6.1-1.3,10.8-5.7.8-.8,1.8-1.8,1.8-1.8.6-.7,1.1-1.3,1.8-2.2.7-.9,1.2-1.7,2.1-3.2.3-.4.8-1.6.8-1.6,0,0,0,0,0,0Z"/>
  <path class="st2" d="M203.1,83.6c-22.8,0-38-18.6-38-41.4S180.4,1.2,203.1,1.2s18.2,3.2,25.1,8.6c-7.3-6.1-16.7-9.7-27-9.7-23.4,0-42.4,19-42.4,42.4s19,42.4,42.4,42.4,19.7-3.7,27-9.7c-7,5.4-15.7,8.6-25.1,8.6Z"/>
  <circle class="st5" cx="200.2" cy="38.7" r="2.5"/>
  <path class="st4" d="M123.9,152.7h1.2v11.7h-1.2v-.9c-.4.5-1.1,1.1-2.3,1.1-1.7,0-3.2-1.2-3.2-3.5s1.5-3.5,3.2-3.5,2,.7,2.3,1.1v-6ZM119.6,161c0,1.4.8,2.5,2.2,2.5s2.2-1.2,2.2-2.5-1.2-2.5-2.2-2.5-2.2.8-2.2,2.4Z"/>
  <path class="st4" d="M135.6,157.7h1.2v6.6h-1.2v-.9c-.4.5-1.1,1.1-2.3,1.1-1.7,0-3.2-1.2-3.2-3.5s1.5-3.5,3.2-3.5,2,.7,2.3,1.1v-.9ZM131.3,161c0,1.4.8,2.5,2.2,2.5s2.2-1.2,2.2-2.5-1.2-2.5-2.2-2.5-2.2.8-2.2,2.4Z"/>
  <path class="st4" d="M154.2,157.7h1.2v6.6h-1.2v-.9c-.4.5-1.1,1.1-2.3,1.1-1.7,0-3.2-1.2-3.2-3.5s1.5-3.5,3.2-3.5,2,.7,2.3,1.1v-.9ZM149.8,161c0,1.4.8,2.5,2.2,2.5s2.2-1.2,2.2-2.5-1.2-2.5-2.2-2.5-2.2.8-2.2,2.4Z"/>
  <path class="st4" d="M160.7,157.7h1.2v.7c.1-.2.6-.9,1.5-.9s.7.1,1,.3l-.5,1c-.3-.2-.5-.2-.7-.2-.5,0-.8.2-.9.4-.2.3-.4.7-.4,1.8v3.5h-1.2v-6.6Z"/>
  <path class="st4" d="M170.2,158.8v5.6h-1.2v-5.6h-.7v-1.1h.7v-2.4h1.2v2.4h1.2v1.1h-1.2Z"/>
  <path class="st4" d="M181.5,162.7c-.2.4-.5.8-.8,1.1-.6.5-1.4.8-2.2.8-1.6,0-3.3-1-3.3-3.5s1.2-3.5,3.2-3.5,2.1.6,2.5,1.2c.4.6.7,1.6.6,2.5h-5.2c0,1.4,1,2.3,2.1,2.3s1-.2,1.4-.5c.3-.3.5-.6.7-.9l1,.5ZM180.4,160.3c-.2-1-1-1.7-2-1.7s-1.8.7-2,1.7h3.9Z"/>
  <path class="st4" d="M198.6,157.7h1.2v6.6h-1.2v-.9c-.4.5-1.1,1.1-2.3,1.1-1.7,0-3.2-1.2-3.2-3.5s1.5-3.5,3.2-3.5,2,.7,2.3,1.1v-.9ZM194.2,161c0,1.4.8,2.5,2.2,2.5s2.2-1.2,2.2-2.5-1.2-2.5-2.2-2.5-2.2.8-2.2,2.4Z"/>
  <path class="st4" d="M213.5,158.3l4.5-4.6h1.6l-5,5,5.2,5.7h-1.6l-4.4-4.9-.3.3v4.6h-1.2v-10.7h1.2v4.6Z"/>
  <path class="st4" d="M228.8,157.7h1.2v6.6h-1.2v-.9c-.4.5-1.1,1.1-2.3,1.1-1.7,0-3.2-1.2-3.2-3.5s1.5-3.5,3.2-3.5,2,.7,2.3,1.1v-.9ZM224.5,161c0,1.4.8,2.5,2.2,2.5s2.2-1.2,2.2-2.5-1.2-2.5-2.2-2.5-2.2.8-2.2,2.4Z"/>
  <path class="st4" d="M235.3,157.7h1.2v.7c.1-.2.6-.9,1.5-.9s.7.1,1,.3l-.5,1c-.3-.2-.5-.2-.7-.2-.5,0-.8.2-.9.4-.2.3-.4.7-.4,1.8v3.5h-1.2v-6.6Z"/>
  <path class="st4" d="M244.5,161.6c0,.5,0,1,.3,1.4.2.2.5.5,1.2.5s1-.3,1.2-.5c.3-.4.3-1,.3-1.4v-3.9h1.2v4c0,.8,0,1.4-.6,2-.6.6-1.4.8-2,.8s-1.4-.2-2-.8c-.5-.6-.6-1.2-.6-2v-4h1.2v3.9Z"/>
  <path class="st4" d="M254.6,154.4c.4,0,.8.4.8.8s-.4.8-.8.8-.8-.4-.8-.8.4-.8.8-.8ZM255.1,157.7v6.6h-1.2v-6.6h1.2Z"/>
  <path class="st4" d="M261.9,163.3h4.6v1.1h-6.9l4.8-5.6h-3.9v-1.1h6.2l-4.8,5.6Z"/>
  <path class="st4" d="M276.1,157.7h1.2v6.6h-1.2v-.9c-.4.5-1.1,1.1-2.3,1.1-1.7,0-3.2-1.2-3.2-3.5s1.5-3.5,3.2-3.5,2,.7,2.3,1.1v-.9ZM271.8,161c0,1.4.8,2.5,2.2,2.5s2.2-1.2,2.2-2.5-1.2-2.5-2.2-2.5-2.2.8-2.2,2.4Z"/>
  <path class="st4" d="M283,157.7l2,4.5,2.1-5,2.1,5,2-4.5h1.3l-3.3,7.1-2-5-2,5-3.3-7.1h1.3Z"/>
  <path class="st4" d="M301.9,157.7h1.2v6.6h-1.2v-.9c-.4.5-1.1,1.1-2.3,1.1-1.7,0-3.2-1.2-3.2-3.5s1.5-3.5,3.2-3.5,2,.7,2.3,1.1v-.9ZM297.5,161c0,1.4.8,2.5,2.2,2.5s2.2-1.2,2.2-2.5-1.2-2.5-2.2-2.5-2.2.8-2.2,2.4Z"/>
</svg>